<?xml version="1.0" encoding="UTF-8"?>
<svg id="Capa_1" data-name="Capa 1" xmlns="http://www.w3.org/2000/svg" viewBox="0 0 195.79 206.41">
  <defs>
    <style>
      .cls-1 {
        fill: #fff;
      }
    </style>
  </defs>
  <path class="cls-1" d="M80.94,178.67c32.39-38.58,147.83-68.47,96.63-136.59-5.33-7.09-12.58-14.31-19.89-19.9,1.13-1.24,2.72-2.05,4.51-2.17l1.54-.1c.66-.04.77-.98.13-1.17l-5.36-1.61c-2.07-.62-3.71-2.21-4.4-4.26l-1.84-5.46c-.22-.64-1.16-.49-1.16.19v1.76c0,3.52-2.74,6.44-6.25,6.66l-1.54.1c-.66.04-.77.98-.13,1.17l5.36,1.61c2.07.62,3.71,2.21,4.4,4.26l1.84,5.46c.22.64,1.16.49,1.16-.19v-1.76c0-1.36.41-2.63,1.12-3.69,10.3,9.72,16.14,22.41,11.28,37.35-9.48,29.12-57.39,53.13-81.92,69.68-15.96,10.77-57.97,39.03-38.15,61.61,9.66,11.01,30.56,14.5,44.54,14.78l-7.2-1.37c-16.09-4.67-13.56-15.77-4.66-26.37Z"/>
  <path class="cls-1" d="M51.79,93.11c21.37-15.54,45.75-26.73,66.53-43.13,9.23-7.28,23.38-20.21,19.43-33.37C132.99.8,105.35-.49,91.93.11c-.42.02-1.86-.07-1.71.59,11.19-.83,25.78,3.49,16.77,17.19-3.04,4.62-7.72,8.52-12.06,11.89C57.31,58.97-21.96,80.78,5.77,144.4c4.56,10.46,11.32,20.35,19.12,28.6l-5-7.43c-17.13-30.4,9.09-55.88,31.91-72.47ZM112.47,19.97l1.57-.1c3.45-.22,6.14-3.08,6.14-6.54v-1.79c0-.66.93-.82,1.14-.19l1.83,5.43c.68,2.01,2.29,3.57,4.32,4.18l5.33,1.6c.63.19.52,1.11-.13,1.15l-1.57.1c-3.45.22-6.14,3.08-6.14,6.54v1.79c0,.66-.93.82-1.14.19l-1.83-5.43c-.68-2.01-2.29-3.57-4.32-4.18l-5.33-1.6c-.63-.19-.52-1.11.13-1.15Z"/>
  <path class="cls-1" d="M195.34,125c-7.14,30.07-38.91,41.25-62.91,55.05-6.47,3.72-14.29,8.15-19.85,13.06-2.75,2.43-9.71,9.14-2.96,11.09,4.61,1.33,11.15-.84,15.67-2.12l-.83-.49c.81-1.34,1.83-2,3.08-2.83,12.39-8.29,29.17-12.89,40.52-22.99,10.63-9.45,20.42-26.34,24.89-39.78.9-2.71,2.39-7.11,2.73-9.84.05-.4.37-1.32-.34-1.16Z"/>
  <path class="cls-1" d="M8.15,51.79c1.82-2.02,3.76-3.88,5.81-5.62,2.53-2.07,5.57-4.31,9.21-6.69,9.65-6.08,20.48-10.64,30.65-15.91,0,0,0,0,0,0h0c3.5-1.81,6.92-3.71,10.19-5.78,2.54-1.61,15.5-10.48,5.22-10.34-1.45.02-3.88.4-6.11.94-13.31,2.72-44.98,13-60.83,50.38l-.03.05-.38.91c-.06.14-.09.22-.09.22,2.2-2.64,4.05-5.6,6.35-8.16Z"/>
  <path class="cls-1" d="M130.14,47.65c-.66.04-.77.98-.13,1.17l11.77,3.54c2.07.62,3.71,2.21,4.4,4.26l4.06,12.04c.22.64,1.16.49,1.16-.19v-8.06c0-3.52,2.74-6.44,6.25-6.66l7.55-.47c.67-.04.77-.98.13-1.17l-11.77-3.54c-2.07-.62-3.71-2.21-4.4-4.26l-4.06-12.04c-.22-.64-1.16-.49-1.16.19v8.06c0,3.52-2.74,6.44-6.25,6.66l-7.55.47Z"/>
</svg>